<?xml version="1.0" encoding="UTF-8"?>
<svg id="Layer_1" xmlns="http://www.w3.org/2000/svg" version="1.1" viewBox="0 0 448.77 172.16">
  <!-- Generator: Adobe Illustrator 30.1.0, SVG Export Plug-In . SVG Version: 2.1.1 Build 136)  -->
  <defs>
    <style>
      .st0 {
        fill: #7f8fa6;
      }
    </style>
  </defs>
  <path class="st0" d="M433.98,170.93c-.61,1.27-4.09.5-5.88.35l-.14-30.13c2.53-1.64,5.22.59,7.1.29,2.73-.44,4.9-1.93,7.82-.54,2.2,1.05,4.31,2.69,5.15,5.76,1.59,5.82.94,14.13-4.84,16.4-3.15,1.23-6.01.86-8.51-.89l-.69,8.76ZM441.12,156.37c1.33-2.76,1.31-5.46.45-7.87-.61-1.73-1.95-2.63-3.51-2.56-3.97.18-4.76,7.36-2.47,10.89,1.17,1.8,4.48,1.73,5.53-.45Z"/>
  <path class="st0" d="M318.99,162.29c-4.69,2.99-10.74,1.18-12.73-4.08-1.54-4.07-1.57-8.77.17-12.8,2.19-5.08,8.23-6.49,12.95-3.56.79-3.31-.56-6.24.63-8.9,1.29-.88,4.1-.5,5.96-.05l-.06,29.88c-1.83,1.16-4.73.82-6.92-.5ZM318.81,156.12c1.62-3.95.83-10.1-2.92-10.19-1.25-.03-2.45.53-3.17,1.9-1.66,3.18-1.26,9.84,2.43,10.19,1.22.11,2.92-.11,3.65-1.89Z"/>
  <path class="st0" d="M406.23,163.11c-1.24-5.24,2.19-16.8-3.56-17.22-1.85-.13-3.56,1.52-3.57,3.88l-.06,13.18c-2.06.63-4.26.64-6.32-.02l.02-30.06c1.83-.35,4.67-.82,5.94.1,1.18,2.63-.14,5.59.61,9.08,2.72-1.62,5.42-2.16,7.93-1.34,8.04,2.62,4.41,13.45,5.14,22.32-1.88.59-3.66.38-6.13.09Z"/>
  <path class="st0" d="M284.62,162.78c-3.19-1.62-3.61-5.17-2.91-7.9.74-2.91,3.43-4.78,6.78-4.89l6.46-.22c.66-2.4-.69-3.2-2.34-3.82-3.48-1.3-2.5,4.59-10.89.93,1.38-4.56,4.69-6.14,8.78-6.49s9.58,1,10.6,5.44c1.27,5.58-.04,11.26.52,17.09-2.66.91-4.92.59-7.29-.55-2.85,1.49-6.41,2.08-9.71.41ZM294.47,154.39c-2.21-1.48-6.1-.3-6.34,1.59-.37,3,2.79,3.19,4.55,2.6,1.26-.42,3.72-2.9,1.79-4.19Z"/>
  <path class="st0" d="M274.45,156.26c1.11-.69,3.72,1.9,3.9,3.59-3.65,4.86-12.52,5.56-16.93.62-3.67-4.1-3.86-10.6-1.37-15.31s8.42-5.84,13.06-4.08,6.98,7.83,5.82,12.86l-13.45.27c-.45,2.44,1.5,3.38,2.94,3.79,2.32.65,3.75-.32,6.04-1.74ZM272.23,149.27c.81-1.68-1.98-3.54-3.67-3.42-1.36.09-3.98,1.97-3.04,3.52,1.79.79,5.44.83,6.7-.09Z"/>
  <path class="st0" d="M346.11,156.22c1.06-.61,3.8,2.2,3.59,3.44-1.12,3.03-5.6,4.05-8.71,4.1-6.94.13-10.99-4.94-11.02-11.55-.02-4.58,1.39-8.86,5.38-10.8,3.74-1.82,8.44-1.53,11.74,1.18,2.64,2.17,5.01,8.46,2.94,11.08l-13.35.71c.23,2.79,2.19,3.42,3.81,3.75,2.06.41,3.69-.81,5.61-1.91ZM344.16,149.64c-.59-3.15-2.57-3.9-4.32-3.67s-3.18,1.39-3.1,3.74c2.68.08,4.86.21,7.41-.07Z"/>
  <path class="st0" d="M385.94,162.4c-4.07,1.94-8.72,1.82-12.56-.07-1.96-.96-4.12-3.59-3-5.74.66-1.27,4.48-1.08,5.48-.06,1.26,1.28,1.83,2.2,3.23,2.33s4-.56,3.38-2.26c-2.03-2.41-11.91-2.44-12.17-8.11-.12-2.52.42-5.12,2.86-6.48,4.03-2.25,9.07-2.32,13.04.23,1.51.97,3.43,3.76,2.34,5.3-.91,1.28-4.62.89-5.69-.24-1-1.06-1.82-1.85-2.98-1.77-1.28.09-2.72-.06-3.34,2.07,2.41,2.74,12.62,2.14,12.8,8.36.07,2.52-.51,5.08-3.39,6.45Z"/>
  <path class="st0" d="M24.16,154.37c.04,5.09-3.14,8.63-7.95,8.9-4.2.23-8.23.1-12.44-.09l.05-30.53c6.26-.06,20.15-2.05,20.22,7.27l.11,14.45ZM20.74,154.36v-12.84c0-2.5-1.36-5.05-3.91-5.58-3.16-.67-6.28-.71-9.67-.14v24.52c4.93.08,13.58,1.84,13.57-5.95Z"/>
  <path class="st0" d="M255.07,158.17c1.27.17,1.16,4.14.07,5.04l-20.75-.02v-30.32c2.29-.51,4.15-.52,6.31.02l.14,24.99,14.23.3Z"/>
  <path class="st0" d="M48.67,172.05c-1.18.01-2.24.01-2.87-.46-.47-.35-.24-1.14-.07-1.81.43-1.7,5-.09,7.33-2.47,1.23-1.25,2.24-3.01,1.53-5.51-2.7,1.37-4.98,2.33-8.09,1.49-6.72-1.82-6.7-10.31-5.68-16.11.53-2.98,2.74-4.84,4.51-5.83,2.88-1.61,6.59.07,8.74.61.94.23,3.7-2.45,3.92-.33.71,7.07.1,14.15.27,21.25.13,5.5-3.7,9.12-9.58,9.17ZM54.58,156.54c.87-4.47,1-12.25-4.31-12.78-2.62-.26-5.08,1.03-5.9,3.88s-.8,6.23.04,9.23c.71,2.54,2.93,3.69,5.09,3.73s4.5-1.06,5.09-4.06Z"/>
  <path class="st0" d="M360.46,162.77c-1.08,1.15-4.24.51-5.92.27l-.15-21.92c2.62-1.34,5,.45,7.6.13,1.65-.2,4.89-1.92,6.01.04.72,1.25.26,5.05-1.05,5.52-2.12.75-5.8-.05-5.93,2.97l-.56,13Z"/>
  <path class="st0" d="M181.12,151.88c-.16,4.27-.7,8.12-3.75,10.2s-7.43,2.29-10.87.25c-3.26-1.94-3.87-6.02-4.04-10.04-.27-6.26,2.55-11.2,8.38-11.61,6.41-.45,10.55,4.02,10.29,11.2ZM177.43,148.62c-.6-3.2-2.88-5.03-5.81-4.91-2.44.1-4.86,1.53-5.37,4.52s-.59,5.87.18,8.67,3.42,4,5.98,3.81c5.56-.42,5.85-7.65,5.02-12.09Z"/>
  <path class="st0" d="M159.34,141.59c-2.41,9.07-5.79,17.45-8.77,26.2-1.11,3.26-4.52,5.04-7.75,3.98-.61-.2-.32-1.53-.26-1.9-.02.13,7.67-2.23,5.86-7.71l-6.78-20.52c-.24-.71,1.68-.8,2.12-.72,2.26.41,4.69,13.84,6.84,17.27,2.28-5.64,3.7-10.79,5.38-16.31.38-1.24,3.59-1.15,3.36-.29Z"/>
  <path class="st0" d="M130.52,141.67c-2.63,8.85-5.71,17.21-8.77,25.87-.64,1.82-1.95,3.41-3.16,3.87-1.87.71-4.57,1.77-5.38-1.47,3.96-.72,7.52-3.78,6.24-7.71l-6.68-20.45c-.21-.65,1.08-.93,1.54-.92,3.2.07,4.97,13.83,7.41,17.41,2.48-5,4.11-15.39,6.55-17.31.35-.28,2.44.1,2.26.72Z"/>
  <path class="st0" d="M200.52,143.61c0-1.77.2-2.61,1.41-2.74s2.08.59,1.99,2.33c-.34,6.57.48,13.08-.39,19.59-.21,1.58-2.91-.58-3.81-.35-1.84.46-5,1.88-7.39,1.09-8.19-2.72-4.86-8.84-5.59-20.33-.09-1.39.41-2.16,1.27-2.29,5.98-.87-3.23,20.09,7.36,19.79,2.76-.08,5.12-2.1,5.13-5.36l.02-11.73Z"/>
  <path class="st0" d="M78.39,161.72l-.02-12.6c0-3.3-2.23-5.34-5.12-5.35s-5.28,1.93-5.29,5.22l-.02,12.29c0,1.38-.36,1.99-1.26,2.1-1.31.16-2.21-.41-2.11-2.1.39-6.58-.43-13.1.37-19.68.24-1.96,2.95.64,3.91.4,1.97-.49,5.36-2.08,8.1-.86,6.78,3.02,4.51,9.66,4.78,20.15.03,1.31-.45,1.95-1.12,2.01-1.13.1-2.22.26-2.22-1.58Z"/>
  <rect class="st0" x="416.68" y="140.75" width="6.42" height="22.58"/>
  <path class="st0" d="M104.25,144.29l-.08,16.97c0,1.29-.12,2.17-1.39,2.08-3.97-.29-.82-9.94-2.27-18.91-.08-.51-2.13-.4-2.63-.55-.67-.21-.82-2.28.05-2.55,1.67-.5,3.19-.94,3.08-3.02-.2-3.77,2.57-5.85,6.26-5.75,1.24.03,2.3-.09,2.48,1.2.41,2.88-3.62.76-4.91,3.34-.43.86-1.25,2.88-.12,3.47,1.54.81,3.27-.11,4.55.65.61.36.73,2.2.26,2.6-1.46.56-2.99-.14-5.29.47Z"/>
  <path class="st0" d="M222.2,143.11c-.49,2.81-8.33-.51-8.33,6.67v11.5c0,1.38-.36,2-1.26,2.1-1.37.15-2.12-.4-2.1-2.09l.2-19.66c0-.77,1.51-.83,1.93-.71.6.17,1.09,1.06,1.63,2.32,1.85-1.78,4.62-3.3,7.31-1.91.99.51.71,1.29.62,1.8Z"/>
  <rect class="st0" x="30.59" y="140.89" width="3.36" height="22.44"/>
  <path class="st0" d="M91.89,160.82c0,1.78-.17,2.57-1.41,2.57-1.05,0-1.95-.48-1.95-2.12v-18.08c.01-1.39.37-2.11,1.12-2.25,1.74-.32,2.25.55,2.25,2.24l-.02,17.64Z"/>
  <circle class="st0" cx="420" cy="134.82" r="3.6"/>
  <circle class="st0" cx="32.33" cy="134.71" r="2.44"/>
  <circle class="st0" cx="90.44" cy="134.72" r="2.45"/>
  <path class="st0" d="M334.84,71.21c-10.75,16.36-35.62,15.1-51.77,13.25l.07-63.02c18.29-2.24,43.78-4.59,53.75,14.36,4.93,11.42,4.37,24.33-2.05,35.41ZM323.85,45.7c-2.5-12.61-15.21-16.09-25.95-13.56l.1,41.47c4.57.44,8.63.32,12.68-.73,12.05-3.15,15.35-16.22,13.18-27.18Z"/>
  <path class="st0" d="M254.11,68.76l-18.2-.22-4.67,16.11c-4.95.39-9.79.39-15.23-.01l19.56-64.02,19.26-.11,19.94,64.21c-5.55.27-10.33.3-15.57-.03-2.24-5.05-3.16-10-5.09-15.93ZM251.66,56.96l-7.08-23.92-6.43,24.07c4.97.18,8.68.47,13.51-.15Z"/>
  <path class="st0" d="M433.81,84.48c-3.59-6.65-3.73-22.81-11.35-24.43-2.67-.57-5.52-.84-7.8-.12l-.07,24.85h-14.21s-.07-63.37-.07-63.37c14.13-1.59,42.8-5.59,45.91,13.44,1.36,8.31-2.45,15.88-10.54,19.52,4.2,2.89,6.39,6.45,7.61,10.94l5.28,19.33c-5.22.35-9.77.51-14.77-.16ZM431.78,41.01c.4-3.23-.83-6.89-3.99-8.45-4.01-1.97-8.65-2.1-12.93-.89-.29,6.05-.32,11.32.02,17.18,6.82.64,15.95-.18,16.9-7.85Z"/>
  <path class="st0" d="M387.54,57.76l-23.02.15-.2,14.61,26.02.26c.33,4.03.39,7.98-.06,12.07h-40.73s-.08-64.05-.08-64.05l39.59-.19c.39,4.02.09,7.67.05,11.85l-24.61.13-.18,12.89,23.28.23-.06,12.07Z"/>
  <path class="st0" d="M208.15,57.45l-23.41.46c-.45,4.68-.23,9.44-.12,14.64l26.19.21c.34,4.06.38,8.01-.07,12.11l-41.01-.07.04-64.17,39.68.09c.25,4.3.28,7.76.02,11.72l-24.67.13c-.6,4.21-.23,8.36-.2,12.97l23.47.11.08,11.79Z"/>
  <path class="st0" d="M161.19,72.54c.38,4.35.26,8.11.01,12.34l-39.96-.03-.03-64.03c4.82-.41,9.37-.22,14.53-.09l.16,51.71,25.29.09Z"/>
  <path class="st0" d="M30.18,96.83l-21.2-.83C5.28,95.86,0,92.7,0,88.28L.14,24.39c0-3.11,4.87-6.78,7.36-7.59,2.21-.72,13.11-2.85,17.1-3.71L81.54.81c2.44-.53,4.96-1.44,7.18-.15,1.6.93,4.39,2.85,4.39,5.8l.03,85.08c0,3.18-3.26,7.63-6.27,7.89-17.79,1.56-26.46-1.95-39.45-1.4-5.92.25-11.48-.98-17.25-1.21ZM43.97,85.56c10.14-1.26,20.72-3.69,27.24-12.06,8.77-11.25,9.26-27.08,2.94-39.56-11.62-17.14-35.18-14.61-52.79-12.26l.05,62.88c4.14,1.27,8.98-.63,12.36,1.06,3.71,1.86,5.97.46,10.2-.06Z"/>
  <path class="st0" d="M62.59,47.12c1.17,10.07-1.3,22.51-12.45,25.88-4.48,1.35-9.14,1.79-14.17,1.03l-.03-42.04c4.6-2.4,8.95-.5,13.12.21,7.68,1.31,12.62,7.06,13.54,14.93Z"/>
</svg>